<?xml version="1.0" encoding="utf-8"?>
<!-- Generator: Adobe Illustrator 16.0.0, SVG Export Plug-In . SVG Version: 6.00 Build 0)  -->
<!DOCTYPE svg PUBLIC "-//W3C//DTD SVG 1.1//EN" "http://www.w3.org/Graphics/SVG/1.1/DTD/svg11.dtd">
<svg version="1.1"
	 id="svg2" xmlns:svg="http://www.w3.org/2000/svg" xmlns:sodipodi="http://sodipodi.sourceforge.net/DTD/sodipodi-0.dtd" xmlns:rdf="http://www.w3.org/1999/02/22-rdf-syntax-ns#" xmlns:inkscape="http://www.inkscape.org/namespaces/inkscape" xmlns:cc="http://creativecommons.org/ns#" xmlns:dc="http://purl.org/dc/elements/1.1/"
	 xmlns="http://www.w3.org/2000/svg" xmlns:xlink="http://www.w3.org/1999/xlink" x="0px" y="0px" width="512px" height="512px"
	 viewBox="0 0 512 512" enable-background="new 0 0 512 512" xml:space="preserve">
<g id="layer1" transform="translate(0,-540.36218)">
	<g id="g4305">
		<g id="g4345" transform="translate(28,-40.00001)">
			<g id="text2994">
				<g id="g3830" transform="translate(0,15.24359)">
					<g id="g3838">
						<g id="g3785">
							<path id="rect3909" fill="#383838" d="M360,666.119v40h124v-40H360z M-28,716.119v228h368v-228H-28z M360,716.119v40h124v-40
								H360z M-4,740.119h320v180H-4V740.119z M360,766.119v40h124v-40H360z M360,816.119v160h124v-160H360z M407,906.119h30v5v25
								h-30v-25V906.119z M76,952.119l-16,16v8h192v-8l-16-16H76z"/>
						</g>
					</g>
				</g>
				<g id="layer1-4" transform="translate(539.77941,-13.359245)">
					<g id="layer1-5" transform="translate(-573.14286,170.28574)">
					</g>
				</g>
			</g>
		</g>
	</g>
</g>
</svg>
