<?xml version="1.0" encoding="utf-8"?>
<!-- Generator: Adobe Illustrator 15.0.0, SVG Export Plug-In . SVG Version: 6.00 Build 0)  -->
<!DOCTYPE svg PUBLIC "-//W3C//DTD SVG 1.1//EN" "http://www.w3.org/Graphics/SVG/1.1/DTD/svg11.dtd">
<svg version="1.1" id="Layer_1" xmlns="http://www.w3.org/2000/svg" xmlns:xlink="http://www.w3.org/1999/xlink" x="0px" y="0px"
	 width="400px" height="400px" viewBox="0 0 400 400" enable-background="new 0 0 400 400" xml:space="preserve">
<radialGradient id="SVGID_1_" cx="86.207" cy="161.0522" r="1.1892" gradientUnits="userSpaceOnUse">
	<stop  offset="0.3818" style="stop-color:#FFFFFF"/>
	<stop  offset="0.4182" style="stop-color:#FF8B00"/>
	<stop  offset="0.4485" style="stop-color:#FFFF35"/>
	<stop  offset="1" style="stop-color:#FFC700"/>
</radialGradient>
<path fill="url(#SVGID_1_)" d="M84.694,161.787c0.998-0.507,2.006-0.998,3.025-1.47"/>
<radialGradient id="SVGID_2_" cx="138.9902" cy="214.5518" r="81.3471" gradientUnits="userSpaceOnUse">
	<stop  offset="0.4303" style="stop-color:#FFFFFF"/>
	<stop  offset="0.4606" style="stop-color:#FF8B00"/>
	<stop  offset="0.5091" style="stop-color:#FFFF35"/>
	<stop  offset="1" style="stop-color:#FFC700"/>
</radialGradient>
<path fill="url(#SVGID_2_)" d="M78.154,137.78c-15.397,16.306-24.842,38.295-24.842,62.492c0,50.287,40.765,91.052,91.051,91.052
	c34.758,0,64.962-19.48,80.306-48.113L78.154,137.78z"/>
<path d="M230.532,246.359L37.338,76.548c0,0-1.115,60.866,12.646,74.877c3.432,3.495,70.155,36.888,70.155,36.888
	c-6.14,5.508-10.079,13.44-10.271,22.336c-0.37,17.068,13.167,31.206,30.236,31.573c15.955,0.346,29.343-11.458,31.326-26.942
	L230.532,246.359z"/>
<rect x="92.536" y="83.453" fill="none" width="267.797" height="115.2"/>
<text transform="matrix(1 0 0 1 92.5361 119.6699)"><tspan x="0" y="0" fill="#FFD63F" stroke="#FF003F" stroke-miterlimit="10" font-family="'Alba'" font-size="51.3721">Eagle Eye</tspan><tspan x="214.168" y="0" stroke="#000000" stroke-miterlimit="10" font-family="'Alba'" font-size="51.3721"> </tspan><tspan x="0" y="60.593" font-family="'Alba'" font-size="51.3721" letter-spacing="37">		</tspan><tspan x="105.347" y="60.593" font-family="'Alba'" font-size="51.3721">Studio</tspan></text>
</svg>
