<?xml version="1.0" encoding="utf-8"?>
<!-- Generator: Adobe Illustrator 16.0.0, SVG Export Plug-In . SVG Version: 6.00 Build 0)  -->
<!DOCTYPE svg PUBLIC "-//W3C//DTD SVG 1.1//EN" "http://www.w3.org/Graphics/SVG/1.1/DTD/svg11.dtd">
<svg version="1.1" id="Layer_1" xmlns="http://www.w3.org/2000/svg" xmlns:xlink="http://www.w3.org/1999/xlink" x="0px" y="0px"
	 width="250px" height="250px" viewBox="0 0 250 250" enable-background="new 0 0 250 250" xml:space="preserve">
<g>
	<g>
		<path d="M69.415,136.321c-7.122,1.576-14.029,3.963-21.221,5.232c0.487,0.836,0.973,1.671,1.459,2.507
			c8.925-7.951,10.751-20.744,13.21-31.81c2.687-12.095,6.123-26.016,1.129-37.963c-0.513-1.227-2.549-1.618-2.893,0
			c-2.792,13.142-0.59,27.279-0.05,40.579c0.669,16.494,1.785,32.968,2.606,49.454c0.394,7.909,0.696,15.821,0.878,23.738
			c0.119,5.148,1.008,10.23,0.973,15.396c-0.044,6.361-1.914,11.649-8.274,13.872c-5.641,1.971-12.362,1.548-18.149,0.537
			c-28.183-4.92-3.516-43.482,4.784-55.591c17.447-25.455,37.367-49.143,54.764-74.668c15.061-22.098,30.195-45.444,37.163-71.532
			c0.317-1.187-0.745-2.034-1.845-1.845c-7.049,1.207-12.542,6.507-17.321,11.467c-5.417,5.623-9.934,11.966-13.969,18.636
			C93.596,59.314,87.63,76.183,83.446,93.119c-7.843,31.749-12.504,69.165,0.038,100.28c0.5,1.239,2.559,1.608,2.893,0
			c3.574-17.188,8.04-34.153,13.16-50.943c2.639-8.656,5.392-17.278,7.837-25.993c1.221-4.351,2.257-8.746,3.131-13.179
			c0.586-2.969,1.272-5.369,0.582-8.356c-0.239-1.034-1.792-1.533-2.507-0.662c-5.16,6.285-5.712,14.901-6.079,22.708
			c-0.308,6.546-0.871,13.125-0.402,19.674c0.305,4.261,1.283,11.225,6.688,11.87c6.417,0.766,6.612-11.108,11.813-9.972
			c5.909,1.292,8.661-7.139,10.427-11.594c3.796-9.574,5.592-19.72,7.473-29.802c4.479-24.011,9.87-47.742,11.594-72.174
			c0.118-1.681-2.642-2.063-2.946-0.399c-4.816,26.282-6.08,52.993-7.24,79.636c-0.605,13.903-1.813,27.813-1.199,41.737
			c0.328,7.438,0.257,18.07,6.818,23.131c8.027,6.191,18.08-0.919,25.114-5.432c10.376-6.656,19.319-15.262,27.143-24.734
			c7.83-9.482,14.413-19.956,19.385-31.204c4.343-9.824,9.078-20.395,9.38-31.282c0.027-0.977-0.979-1.703-1.898-1.446
			c-6.211,1.732-8.799,10.616-10.027,16.065c-1.325,5.873-1.807,14.518,4.146,18.072c0.604,0.361,1.313,0.213,1.817-0.235
			c3.928-3.484,2.616-10.605,7.545-12.847c1.759-0.8,0.233-3.385-1.514-2.591c-5.886,2.677-3.88,9.525-8.152,13.316
			c0.605-0.078,1.212-0.156,1.817-0.235c-4.965-2.965-3.579-11.083-2.533-15.72c0.904-4.006,3.107-11.653,7.698-12.934
			c-0.633-0.482-1.266-0.964-1.898-1.446c-0.288,10.395-4.978,20.342-8.97,29.768c-4.465,10.54-10.752,20.281-17.824,29.243
			c-6.755,8.56-14.542,16.184-23.32,22.652c-8.067,5.945-23.948,17.546-29.612,3.219c-3.358-8.494-2.418-19.737-2.239-28.645
			c0.241-11.988,1.12-23.98,1.656-35.959c1.066-23.874,2.487-47.791,6.802-71.333c-0.982-0.133-1.964-0.266-2.946-0.399
			c-1.488,21.101-5.5,41.862-9.735,62.553c-1.629,7.955-2.968,15.971-4.75,23.894c-0.908,4.037-2.038,8.014-3.396,11.922
			c-0.537,1.548-4.802,13.239-7.316,12.471c-3.957-1.207-6.466,1.527-8.284,4.698c-1.339,2.336-3.672,7.62-6.669,3.525
			c-1.643-2.245-1.733-5.86-1.921-8.498c-0.356-4.974,0.167-9.914,0.346-14.877c0.287-7.958-0.002-17.777,5.334-24.279
			c-0.835-0.221-1.671-0.441-2.507-0.662c0.883,3.819-0.94,8.707-1.785,12.431c-1.003,4.419-2.266,8.78-3.541,13.127
			c-2.353,8.019-4.902,15.977-7.316,23.976c-4.708,15.598-8.75,31.392-12.067,47.344c0.964,0,1.928,0,2.893,0
			c-12.067-29.938-7.619-64.961-0.759-95.619c3.527-15.763,8.919-31.173,16.442-45.477c3.824-7.271,8.357-14.474,13.852-20.603
			c5.076-5.662,10.98-12.437,18.836-13.782c-0.614-0.615-1.229-1.23-1.845-1.845c-7.696,28.815-25.395,54.435-42.247,78.632
			c-9.021,12.952-18.462,25.607-28.008,38.175c-8.972,11.813-18.301,23.463-26.21,36.031c-7.633,12.131-22.286,37.516-6.871,49.285
			c6.992,5.338,19.24,5.051,27.301,3.156c9.701-2.279,11.786-10.805,11.625-19.686c-0.148-8.207-1.014-16.464-1.315-24.68
			c-0.436-11.877-1.144-23.742-1.815-35.607c-0.663-11.706-1.24-23.412-1.66-35.13c-0.363-10.125-1.84-20.336,0.291-30.367
			c-0.964,0-1.928,0-2.893,0c4.774,11.423,1.533,24.801-1.13,36.368c-2.429,10.555-3.896,22.875-12.438,30.487
			c-1.223,1.089,0.106,2.746,1.459,2.507c7.192-1.269,14.1-3.656,21.221-5.232C72.102,138.796,71.3,135.904,69.415,136.321
			L69.415,136.321z"/>
	</g>
</g>
<g>
	<g>
		<path d="M130.678,99.098c8.899-3.311,16.175-9.353,23.904-14.686c9.104-6.282,18.194-12.394,26.758-19.421
			c1.497-1.228-0.639-3.338-2.121-2.121c-7.875,6.462-16.135,12.39-24.648,17.977c-8.102,5.316-15.496,11.938-24.689,15.358
			C128.084,96.873,128.861,99.774,130.678,99.098L130.678,99.098z"/>
	</g>
</g>
</svg>
